<svg version="1.0" xmlns="http://www.w3.org/2000/svg"
 width="41.000000pt" height="40.000000pt" viewBox="0 0 41.000000 40.000000"
 preserveAspectRatio="xMidYMid meet">
<g transform="translate(0.000000,40.000000) scale(0.100000,-0.100000)"
fill="#4299e1" stroke="none">
<path d="M135 385 c-93 -33 -148 -142 -121 -245 23 -87 88 -140 176 -140 l50
0 0 70 0 70 -33 0 c-40 0 -57 15 -57 51 0 36 24 59 60 59 42 0 50 -23 50 -144
l0 -106 70 0 70 0 0 128 c-1 178 -28 231 -135 261 -52 14 -81 13 -130 -4z"/>
</g>
</svg>
